<svg xmlns="http://www.w3.org/2000/svg" enable-background="new 0 0 512 512" viewBox="0 0 512 512"><path fill="#cfe9ff" d="M505.577,149.947l-30.094,43.741c-3.79,5.538-10.614,8.273-17.173,6.757
			c-26.37-6.164-53.629-18.36-81.383-34.248c38.598,74.461,57.486,169.161,51.684,289.044c-0.33,6.955-5.109,12.954-11.833,14.899
			l-65.858,19.283c-5.604,1.615-11.701,0.198-15.954-3.824c-32.962-31.248-58.244-78.45-78.779-135.441
			c-20.535,56.991-45.817,104.193-78.779,135.441c-4.252,4.021-10.35,5.439-15.954,3.824l-65.858-19.283
			c-6.724-1.945-11.504-7.944-11.833-14.899c-5.801-119.883,13.086-214.583,51.684-289.044
			c-27.754,15.888-55.014,28.084-81.383,34.248c-6.559,1.516-13.383-1.22-17.173-6.757L6.795,149.947
			c-4.054-5.867-3.889-13.712,0.462-19.382c45.125-58.771,102.545-91.766,169.26-105.248c6.46-1.319,13.053-2.439,19.711-3.395
			h119.916c6.658,0.956,13.251,2.077,19.711,3.395c66.715,13.481,124.135,46.476,169.26,105.248
			C509.467,136.235,509.632,144.08,505.577,149.947z"/><path fill="#f65e5e" d="M84.643 190.35c-10.451 4.074-20.795 7.363-31.006 9.735-6.533 1.518-13.319-1.239-17.122-6.763L6.41 149.586c-4.046-5.878-3.868-13.722.477-19.383 6.885-8.971 14.06-17.346 21.523-25.126L84.643 190.35zM206.381 451.451c-8.953 12.824-18.563 24.267-28.939 34.113-4.26 4.043-10.358 5.494-15.994 3.846l-65.854-19.256c-6.713-1.963-11.504-7.953-11.838-14.94-.609-12.766-.932-25.26-.983-37.483L206.381 451.451zM426.987 190.35c10.451 4.074 20.795 7.363 31.006 9.735 6.533 1.518 13.319-1.239 17.122-6.763l30.104-43.736c4.046-5.878 3.868-13.722-.477-19.383-6.885-8.971-14.06-17.346-21.523-25.126L426.987 190.35zM305.992 451.451c8.953 12.824 18.563 24.267 28.939 34.113 4.26 4.043 10.358 5.494 15.994 3.846l65.854-19.256c6.713-1.963 11.504-7.953 11.838-14.94.609-12.766.932-25.26.983-37.483L305.992 451.451zM335.864 25.326c-1.774 42.421-36.862 76.326-79.677 76.326s-77.903-33.905-79.677-76.326c6.466-1.341 13.05-2.444 19.712-3.39 0 33.117 26.848 59.925 59.965 59.925s59.965-26.809 59.965-59.925C322.814 22.882 329.398 23.986 335.864 25.326z"/></svg>