<svg xmlns="http://www.w3.org/2000/svg" enable-background="new 0 0 512 512" viewBox="0 0 512 512"><path fill="#e6f5ff" d="M498.794,187.102L459.001,256l39.793,68.898c0,0,0,0,0,0.049
			c-11.564,40.717-33.088,77.304-61.804,106.845h-79.539l-39.794,68.947c-19.727,4.956-40.377,7.579-61.658,7.579
			s-41.98-2.623-61.707-7.579l-39.794-68.947h-79.49c-28.715-29.541-50.289-66.128-61.804-106.894L52.951,256l-39.745-68.898
			c11.515-40.766,33.088-77.353,61.804-106.894h79.49l39.794-68.947C214.02,6.306,234.718,3.683,256,3.683
			s41.932,2.623,61.658,7.579l39.794,68.947h79.539c28.715,29.541,50.24,66.128,61.804,106.845
			C498.794,187.102,498.794,187.102,498.794,187.102z"/><path fill="#33aa8d" d="M508.318,256c0,23.852-3.312,46.994-9.541,68.914l-38.045-65.957H355.744l-47.31,81.964
			l52.435,90.874h76.129c-32.131,33.077-73.211,57.324-119.338,68.954l38.084-65.997l-52.435-90.874h-94.698l-52.395,90.874
			l38.084,65.997c-46.127-11.63-87.207-35.916-119.299-68.954h76.09l52.395-90.874l-47.31-81.964H51.268l-38.045,65.957
			C6.994,302.994,3.682,279.852,3.682,256s3.312-46.994,9.541-68.914l38.045,65.957h104.909l47.349-81.964l-52.435-90.874h-76.09
			c32.091-33.037,73.172-57.323,119.299-68.954l-38.084,65.957l52.395,90.913h94.698l52.435-90.874L317.66,11.251
			c46.127,11.631,87.207,35.877,119.338,68.954H360.87l-52.435,90.874l47.31,81.964h104.988l38.045-65.957
			C505.006,209.006,508.318,232.148,508.318,256z"/></svg>