<svg xmlns="http://www.w3.org/2000/svg" width="512" height="512"><g fill="#3e6172"><path d="M169.515 316.877c-3.043 10.385-.181 21.32 6.404 26.093l-16.298-11.815c-6.584-4.774-9.446-15.708-6.403-26.093z"/><path d="M175.919 342.97a13.133 13.133 0 0 0 2.55 1.45l-16.296-11.814a13.133 13.133 0 0 1-2.552-1.451z"/><path d="M178.47 344.42c8.356 3.57 17.896-2.974 21.307-14.617l-16.297-11.815c-3.411 11.643-12.95 18.187-21.307 14.618zm21.307-14.617c3.043-10.385.181-21.32-6.404-26.093l-16.297-11.815c6.585 4.774 9.446 15.707 6.404 26.093z"/><path d="M193.373 303.71a13.133 13.133 0 0 0-2.55-1.45l-16.298-11.816c.902.385 1.754.873 2.551 1.45zm-2.55-1.45c-8.357-3.57-17.897 2.974-21.308 14.617l-16.297-11.815c3.411-11.643 12.95-18.188 21.307-14.618z"/><path d="M169.251 316.718c-3.418 11.665.6 24.022 8.972 27.598 8.373 3.577 17.932-2.98 21.35-14.646 3.417-11.666-.6-24.022-8.973-27.599-8.373-3.576-17.931 2.981-21.349 14.647z"/></g><path fill="#6ebec5" d="M169.25 316.717c-3.418 11.666.6 24.022 8.972 27.599 8.373 3.576 17.932-2.981 21.35-14.647 3.417-11.666-.6-24.022-8.973-27.598-8.373-3.577-17.931 2.98-21.349 14.646z"/><path fill="#3e6172" d="M175.415 319.35c-2.028 6.924.356 14.256 5.325 16.379 4.969 2.122 10.641-1.77 12.67-8.692 2.028-6.923-.356-14.256-5.325-16.378-4.97-2.123-10.642 1.769-12.67 8.692z"/><g fill="#3e6172"><path d="M418.682 260.974c-3.042 10.386-.181 21.32 6.404 26.093l-16.297-11.815c-6.585-4.774-9.447-15.707-6.404-26.093z"/><path d="M425.086 287.067a13.133 13.133 0 0 0 2.55 1.452l-16.296-11.816a13.133 13.133 0 0 1-2.551-1.45z"/><path d="M427.637 288.519c8.356 3.569 17.896-2.976 21.307-14.618l-16.297-11.816c-3.411 11.643-12.95 18.188-21.307 14.618zm21.307-14.618c3.043-10.386.181-21.32-6.404-26.093l-16.297-11.816c6.585 4.774 9.446 15.708 6.404 26.093z"/><path d="M442.54 247.808a13.133 13.133 0 0 0-2.55-1.451l-16.298-11.816c.902.386 1.754.873 2.551 1.451zm-2.55-1.451c-8.357-3.57-17.897 2.975-21.308 14.617l-16.297-11.815c3.411-11.642 12.95-18.187 21.307-14.618z"/><path d="M418.418 260.815c-3.418 11.666.6 24.022 8.973 27.599 8.373 3.576 17.93-2.981 21.349-14.647 3.417-11.665-.6-24.022-8.973-27.598-8.373-3.577-17.931 2.98-21.349 14.646z"/></g><path fill="#6ebec5" d="M418.417 260.815c-3.418 11.666.6 24.022 8.972 27.598 8.373 3.577 17.932-2.98 21.35-14.646 3.417-11.666-.6-24.022-8.973-27.599-8.373-3.576-17.931 2.981-21.349 14.647z"/><path fill="#3e6172" d="M424.582 263.448c-2.028 6.923.356 14.256 5.325 16.378 4.969 2.123 10.641-1.769 12.67-8.692 2.028-6.922-.356-14.255-5.325-16.378-4.97-2.122-10.641 1.77-12.67 8.692z"/><path fill="#4caeb0" d="M413.093 175.27c-9.1.616-18.276 1.751-27.131 3.28l-.162-.17-4.582 1.02c-1.08.207-2.148.429-3.216.646l.08.063-281.227 63.158c-56.403 3.476-91.033 23.498-77.4 44.856 6.847 10.724 22.662 23.783 47.04 29.447 24.343 5.657 57.222 3.943 85.605 2.27l.126-.007-.002-.023 298.73-67.103c.024-.005.05 0 .075-.004 39.944-8.159 56.526-41.258 36.389-61.309-14.483-14.42-44.007-18.174-74.325-16.123z"/><path fill="#f9d54b" d="M385.31 170.22 86.387 237.359l65.219 74.332 298.92-67.139z"/><path fill="#6ebec5" d="M377.5 171.898c39.997-8.133 89.28-8.721 109.43 11.342 20.15 20.063 3.534 53.18-36.462 61.313zM97.067 235.071c-56.821 3.351-91.785 23.454-78.093 44.902 6.845 10.724 22.664 23.77 47.042 29.434 24.379 5.664 57.317 3.948 85.727 2.272z"/><g fill="#6ebec5" transform="rotate(-12.693 -2650.354 -3576.45) scale(1.12941)"><rect width="154.708" height="6.235" x="-652.715" y="682.07" ry="3.118"/><rect width="154.708" height="6.235" x="-645.974" y="695.376" ry="3.118"/><rect width="154.708" height="6.235" x="-638.257" y="708.902" ry="3.118"/></g></svg>