<svg xmlns="http://www.w3.org/2000/svg" data-name="Layer 17" viewBox="0 0 48.39 44.56"><rect width="10.4" height="3.99" x="29.39" y="5.26" fill="#ff4a7a" rx="1.78"/><path fill="#3964ff" d="M205.2,313a1,1,0,0,1-1-1V301.4a4.64,4.64,0,0,0-4.64-4.64h-1.43a1.88,1.88,0,0,1-1.88-1.87v-4h-7.38v3.58a2.28,2.28,0,0,1-2.28,2.27H181a2.28,2.28,0,0,1-2.28-2.27V284.43a.43.43,0,0,1,.43-.42h0a1.17,1.17,0,0,0,1.17-1.17h0a1.17,1.17,0,0,0-1.17-1.17H160.38a2.52,2.52,0,0,0-2.53,2.52V316a.73.73,0,0,0,.73.73h0a1.08,1.08,0,0,0,1.08-1,8.56,8.56,0,0,1,16.53-2,3.31,3.31,0,0,0,3.11,2.16h0a3.31,3.31,0,0,0,3.1-2.16,8.56,8.56,0,0,1,16.34.9,2.78,2.78,0,0,0,2.73,2.06h3.34a1.45,1.45,0,0,0,1.44-1.44V314a1,1,0,0,0-1.05-1Zm-31.67-16.85H162.79a2.44,2.44,0,0,1-2.44-2.44v-7.23a2.44,2.44,0,0,1,2.44-2.44h10.74a2.44,2.44,0,0,1,2.44,2.44v7.23A2.44,2.44,0,0,1,173.53,296.12Z" transform="translate(-157.85 -281.67)"/><path fill="#4f4f4f" d="M173.54 319.21h2.39a7.82 7.82 0 110-1.59h-2.39a5.45 5.45 0 100 1.59zM198.24 318.42a7.81 7.81 0 01-15.58.79h2.39a5.45 5.45 0 100-1.59h-2.39a7.81 7.81 0 0115.58.8z" transform="translate(-157.85 -281.67)"/><path fill="#ffb031" d="M193.14,318.42a2.71,2.71,0,0,1-5.3.79H170.76a2.72,2.72,0,1,1,0-1.59h17.08a2.71,2.71,0,0,1,5.3.8Z" transform="translate(-157.85 -281.67)"/></svg>